<svg width="25" height="25" viewBox="0 0 25 25" xmlns="http://www.w3.org/2000/svg"><path d="M12.5 0C5.597 0 0 5.597 0 12.5S5.597 25 12.5 25 25 19.403 25 12.5 19.403 0 12.5 0z" fill="currentColor"/><path d="M12.68 6.889c.899 0 1.63.754 1.63 1.682 0 .924-.731 1.679-1.63 1.679-.898 0-1.629-.755-1.629-1.68 0-.927.73-1.681 1.63-1.681zm0 5.74c2.17 0 3.935-1.82 3.935-4.058 0-2.24-1.764-4.062-3.935-4.062-2.17 0-3.932 1.821-3.932 4.062 0 2.237 1.762 4.059 3.932 4.059zm1.592 3.314a7.292 7.292 0 002.284-.978c.538-.349.7-1.083.362-1.64a1.13 1.13 0 00-1.59-.374 4.866 4.866 0 01-5.297 0 1.127 1.127 0 00-1.589.374 1.213 1.213 0 00.363 1.64 7.292 7.292 0 002.284.978l-2.2 2.269a1.218 1.218 0 000 1.681c.227.232.52.35.814.35.295 0 .59-.118.818-.35l2.16-2.229 2.162 2.23a1.124 1.124 0 001.629 0c.45-.464.45-1.218 0-1.682l-2.2-2.269z" fill="#030a1a"/></svg>