<svg xmlns="http://www.w3.org/2000/svg" xmlns:xlink="http://www.w3.org/1999/xlink"><symbol id="icon-close" viewBox="0 0 20 20"><path fill-rule="evenodd" clip-rule="evenodd" d="M.177 1.031a.604.604 0 01.854-.854l8.97 8.969 8.968-8.97a.604.604 0 01.854.855L10.854 10l8.97 8.969a.604.604 0 11-.855.854L10 10.854l-8.969 8.97a.604.604 0 11-.854-.855L9.146 10 .177 1.031z" fill="#fff"/></symbol><symbol id="ok" viewBox="0 0 25 25"><path d="M12.5 0C5.597 0 0 5.597 0 12.5S5.597 25 12.5 25 25 19.403 25 12.5 19.403 0 12.5 0z" fill="#fff"/><path d="M12.68 6.889c.899 0 1.63.754 1.63 1.682 0 .924-.731 1.679-1.63 1.679-.898 0-1.629-.755-1.629-1.68 0-.927.73-1.681 1.63-1.681zm0 5.74c2.17 0 3.935-1.82 3.935-4.058 0-2.24-1.764-4.062-3.935-4.062-2.17 0-3.932 1.821-3.932 4.062 0 2.237 1.762 4.059 3.932 4.059zm1.592 3.314a7.292 7.292 0 002.284-.978c.538-.349.7-1.083.362-1.64a1.13 1.13 0 00-1.59-.374 4.866 4.866 0 01-5.297 0 1.127 1.127 0 00-1.589.374 1.213 1.213 0 00.363 1.64 7.292 7.292 0 002.284.978l-2.2 2.269a1.218 1.218 0 000 1.681c.227.232.52.35.814.35.295 0 .59-.118.818-.35l2.16-2.229 2.162 2.23a1.124 1.124 0 001.629 0c.45-.464.45-1.218 0-1.682l-2.2-2.269z" fill="#030A1A"/></symbol><symbol id="reddit" viewBox="0 0 25 25"><path d="M12.5 0C5.597 0 0 5.597 0 12.5S5.597 25 12.5 25 25 19.403 25 12.5 19.403 0 12.5 0z" fill="#fff"/><path d="M13.85 5.556c-.444 0-.862.226-1.13.551-.269.326-.416.723-.524 1.142-.17.673-.224 1.42-.236 2.093a7.317 7.317 0 00-3.327 1.027c-.382-.32-.842-.5-1.283-.494-.503.004-.98.22-1.334.665-.678.85-.6 2.238.185 3.064a4.173 4.173 0 00-.084.78c0 2.796 2.858 5.06 6.383 5.06s6.383-2.266 6.383-5.06c0-.264-.036-.526-.084-.78.785-.826.863-2.214.185-3.064a1.697 1.697 0 00-1.334-.665c-.44-.005-.901.173-1.283.494a7.313 7.313 0 00-3.31-1.027c.017-.62.061-1.265.186-1.75.078-.305.171-.526.27-.647.1-.122.171-.172.338-.172.36 0 .407.117.625.4.11.143.236.32.439.495.202.173.502.323.827.323V6.773c-.09 0-.108-.002-.169-.057-.06-.054-.145-.18-.27-.342-.249-.326-.732-.818-1.452-.818zm3.513.114c-.84 0-1.52.766-1.52 1.712 0 .947.68 1.712 1.52 1.712s1.52-.765 1.52-1.712c0-.946-.68-1.712-1.52-1.712zm0 .609c.54 0 .98.494.98 1.103s-.44 1.104-.98 1.104-.98-.495-.98-1.104c0-.609.44-1.103.98-1.103zM12.5 10.293c2.991 0 5.522 1.877 5.522 4.09 0 2.217-2.531 4.091-5.522 4.091s-5.522-1.874-5.522-4.09c0-2.215 2.531-4.09 5.522-4.09zm-5.133.552c.15.002.306.04.455.114a4.986 4.986 0 00-1.266 1.598c-.203-.47-.148-1.058.101-1.37a.877.877 0 01.71-.342zm10.266 0a.877.877 0 01.71.342c.249.312.304.9.1 1.37a4.984 4.984 0 00-1.266-1.598c.15-.074.306-.112.456-.114zm-7.294 1.522c-.54 0-.98.495-.98 1.103 0 .61.44 1.104.98 1.104s.979-.495.979-1.104c0-.608-.44-1.103-.98-1.103zm4.322 0c-.54 0-.979.495-.979 1.103 0 .61.44 1.104.98 1.104s.979-.495.979-1.104c0-.608-.44-1.103-.98-1.103zm-4.846 3.748c.344.802 1.408 1.58 2.685 1.58 1.277 0 2.358-.779 2.702-1.58-.625.454-1.61.761-2.702.761-1.091 0-2.06-.307-2.685-.761z" fill="#030A1A"/></symbol><symbol id="vk" viewBox="0 0 25 25"><path d="M12.5 0C5.597 0 0 5.597 0 12.5S5.597 25 12.5 25 25 19.403 25 12.5 19.403 0 12.5 0z" fill="#fff"/><path d="M13.723 15.052c.442-.143 1.01.944 1.612 1.36.453.316.8.248.8.248l1.608-.023s.84-.052.444-.72c-.033-.055-.233-.495-1.197-1.4-1.008-.945-.872-.792.342-2.427.74-.997 1.035-1.606.942-1.866-.088-.25-.632-.184-.632-.184l-1.811.012c-.177 0-.326.055-.394.239-.002.002-.288.771-.67 1.425-.806 1.385-1.128 1.458-1.261 1.372-.306-.201-.229-.805-.229-1.234 0-1.341.2-1.9-.391-2.045-.198-.049-.343-.08-.847-.085-.644-.01-1.192 0-1.502.153-.206.103-.364.33-.268.342.12.017.39.074.535.272.185.255.18.828.18.828s.106 1.58-.25 1.775c-.245.135-.58-.14-1.298-1.396-.367-.643-.645-1.353-.645-1.353s-.053-.132-.15-.204c-.116-.086-.279-.113-.279-.113l-1.72.01s-.258.008-.353.122c-.084.101-.007.31-.007.31s1.347 3.186 2.873 4.79c1.398 1.474 2.987 1.376 2.987 1.376h.72s.218-.025.329-.144c.103-.111.099-.32.099-.32s-.015-.977.433-1.12z" fill="#030A1A"/></symbol></svg>